<?xml version="1.0" encoding="UTF-8"?>
<svg id="Layer_2" data-name="Layer 2" xmlns="http://www.w3.org/2000/svg" width="371.77" height="296.64" viewBox="0 0 371.77 296.64">
  <g id="Layer_1-2" data-name="Layer 1">
    <path d="M369.67,293.63c-10.18-37.24-57.37-32.29-88.96-31.94-.13,0-.14-.18-.02-.21,15.95-3.47,34.98-9.25,34.79-28.2l-.24-148.83c-.42-25.57,38.21-18.02,49.45-37.75.06-.1-.06-.21-.16-.15C307.91,81.68,245.88,12.87,190.89,2.1c-.02,0-.04,0-.06,0-26.02,8.39-44.86,41.26-60.44,67.63-.06.1-.2.03-.18-.08,6.53-38.14-23.92-54.84-59.79-67.53-.04-.01-.08,0-.11.03-11.39,11.85-33.29,10.17-46.8,19.54-.03.02-.05.05-.05.09C15.13,161.54,44.94,188.81,2.13,242.78c-.05.06-.04.15.04.17,2.4.77,39.85,4.76,40.21,4.8,0,0,0,0,0,0,.32-.3,38.79-35.81,60.39-70.12.06-.1.21-.03.17.09-11.67,41.94,20.7,61.6,58.37,74.57.04.01.08,0,.11-.02,11.18-10.12,36.53-15.9,49.65-5.82,1.58,1.22,2.71,2.92,3.54,4.74,27.22,58.91,117.06,1.64,153.81,43.35l1.26-.91ZM148.26,189.43c-7.39,2.55-2.12-34.97-3.54-38.43-.02-.06,0-.11.06-.13,13.32-5.94,20.09.86,32.46,1.56h.02c42.63-2.78,54.72-3.12,60.06-3.97.05,0,.1.03.11.08,6.06,22.02-20.8,17.31-33.39,17.77-10.12.12-26.08,5.8-32.45,8.23-3.13,1.25-3.37,1.75-5.07,2.63l-18.25,12.25ZM180.04,172.32c18.26-3.13,46.09,6.81,57.17-8.96.06-.09.19-.05.19.05v37.62s0,.02,0,.02c-6.51,32.28-34.02-29.04-57.36-28.73M188.49,30.34c7.8,3.46,19.62,8.29,31.79,13.08.06.02.09.1.05.16-22.86,37.21-28.04,80.55-66.3,75.5-2.43-.13-4.85-.26-7.27-.39h-12.67c-.08,0-.14-.08-.1-.16,13.12-24.23,31.94-63.53,54.39-88.16.03-.03.07-.04.11-.03ZM25.17,238.07c13-13,15.38-28.4,15.7-45.51h0c-3.12-51.44.35-59.22,54.28-56.86.08,0,.13.09.09.16-19.53,36.28-39.96,79.88-69.94,102.39-.11.08-.23-.08-.14-.18ZM40.61,145.11V22.75c0-.07.07-.12.13-.1,17.23,5,37.02,1.74,50.75-9.87.03-.03.08-.03.12-.01,51.59,24.97,40.84,59.89,12.81,105.7-.02.03-.06.05-.1.05-28.25-.79-51.24-.51-63.51,26.63-.05.11-.2.08-.2-.03ZM265.46,261.56c.04.07,0,.14-.09.14-15.45-.46-39.35,1.44-48.78-13.5-15.4-23.14-54.65-23.36-74.84-5.98-.03.03-.07.03-.11.02-52.38-20.72-41.46-68.23-16.6-106.32.02-.04.07-.05.11-.05,65.11,8.82,67.33-35.37,97.8-91.31.03-.05.09-.07.14-.05,4.7,1.83,9.37,3.63,13.86,5.33.04.01.06.05.06.09.26,22.65.4,90.64.4,91.63v5.89c0,.06-.04.11-.1.11-9.81-.69-52.54,8.67-70.92-2.43-.02-.01-.05-.02-.08-.01l-34.47,8.17s-.08.06-.08.11l.24,33.61c-.24,4.18,3.66,4.86,7.38,4.77.13,0,.14.17,0,.2-9.25,1.99-7.67,10.53-7.52,18.33,0,0,0,0,0,0,2.25,27.44,31.78,12.91,47.53,10.55,16.69-3.51,6.16-20.76-6.42-19.72-.12.01-.13.19-.01.23,31.09,10.5-37.44,47.44-28.27-5.63.72-8.33,19.54-14.09,22.39-16.81.74-.71,4-3.21,5.25-3.68,22.6-8.51,35.76,28.75,56.89,35.58,8.01,3.03,20.41,5.78,21-6,0-35.27.04-121.13.15-149.93,0-.04.03-.08.07-.1,30.27-12.26,9.48,196.74,15.04,206.76ZM268.35,261.56V60.89c0-.07.07-.12.13-.1,15.01,3.88,29.61,5.93,43.83,6.2.12,0,.14.17.02.2-14,4.23-25.93,10.06-25.84,25.94l.24,148.21c-.42,12.1-4.76,16.64-18.24,20.33-.07.02-.14-.03-.14-.1Z" style="fill: #000000; stroke: none;"/>
  </g>
</svg>