<?xml version="1.0" encoding="UTF-8"?>
<svg id="Layer_2" data-name="Layer 2" xmlns="http://www.w3.org/2000/svg" width="904.54" height="721.74" viewBox="0 0 904.54 721.74">
  <g id="Layer_1-2" data-name="Layer 1">
    <path d="M899.44,714.43c-24.77-90.61-139.59-78.55-216.45-77.71-.31,0-.35-.45-.04-.51,38.8-8.45,85.11-22.5,84.64-68.6l-.59-362.11c-1.01-62.21,92.96-43.85,120.31-91.85.14-.24-.15-.52-.39-.37C749.17,198.74,598.24,31.32,464.46,5.11c-.05,0-.1,0-.14,0-63.32,20.41-109.15,100.39-147.05,164.55-.14.25-.49.08-.44-.2,15.89-92.79-58.2-133.44-145.47-164.32-.1-.03-.2,0-.27.07-27.72,28.84-80.99,24.75-113.86,47.53-.07.05-.12.13-.12.22C36.81,393.03,109.34,459.4,5.17,590.7c-.12.15-.09.37.09.42,5.84,1.86,96.97,11.59,97.83,11.68.02,0,0,.01.01,0,.78-.72,94.39-87.12,146.95-170.62.16-.25.5-.06.42.22-28.39,102.05,50.36,149.87,142.01,181.44.09.03.19.01.26-.05,27.2-24.62,88.88-38.7,120.79-14.16,3.85,2.96,6.58,7.11,8.62,11.52,66.22,143.34,284.81,3.98,374.23,105.48l3.05-2.21ZM360.73,460.9c-17.98,6.2-5.16-85.09-8.62-93.49-.06-.13.02-.26.15-.32,32.42-14.46,48.89,2.09,78.98,3.8h.04c103.73-6.76,133.13-7.59,146.13-9.65.12-.02.23.07.27.19,14.75,53.58-50.62,42.11-81.24,43.23-24.63.29-63.45,14.11-78.96,20.03-7.63,3.04-8.21,4.26-12.34,6.4l-44.4,29.81ZM438.06,419.27c44.43-7.61,112.13,16.58,139.1-21.81.15-.21.46-.12.46.13v91.53s0,.04,0,.06c-15.85,78.54-82.78-70.66-139.55-69.91M458.61,73.82c18.99,8.42,47.74,20.17,77.36,31.81.15.06.21.24.13.38-55.61,90.53-68.23,195.99-161.32,183.69-5.9-.32-11.8-.63-17.7-.95h-30.84c-.2,0-.33-.2-.24-.38,31.91-58.96,77.7-154.58,132.33-214.5.07-.08.18-.1.28-.06ZM61.25,579.23c31.63-31.63,37.41-69.11,38.19-110.72v-.02c-7.59-125.13.84-144.05,132.07-138.33.19,0,.32.21.23.38-47.51,88.26-97.22,194.36-170.16,249.13-.27.2-.57-.2-.33-.43ZM98.8,353.08V55.36c0-.17.16-.29.33-.25,41.93,12.15,90.06,4.24,123.47-24.01.08-.07.2-.08.29-.04,125.52,60.76,99.36,145.72,31.17,257.18-.05.08-.14.13-.24.13-68.74-1.91-124.68-1.24-154.54,64.78-.12.26-.49.2-.49-.08ZM645.89,636.4c.09.17-.02.34-.21.33-37.58-1.13-95.73,3.49-118.69-32.84-37.48-56.3-132.98-56.83-182.08-14.55-.08.07-.18.08-.28.04-127.44-50.41-100.88-166.01-40.39-258.69.06-.09.16-.13.26-.12,158.42,21.45,163.81-86.06,237.95-222.15.06-.12.21-.17.33-.12,11.43,4.45,22.81,8.84,33.72,12.97.09.03.15.11.15.21.64,55.11.96,220.53.96,222.93v14.33c0,.15-.1.27-.25.26-23.86-1.69-127.82,21.08-172.55-5.92-.06-.03-.12-.04-.19-.03l-83.87,19.89c-.12.03-.2.14-.2.26l.59,81.77c-.59,10.18,8.91,11.83,17.96,11.62.32,0,.34.42.02.49-22.52,4.85-18.65,25.62-18.3,44.6,0,0,0,.01,0,.02,5.46,66.77,77.33,31.4,115.64,25.68,40.61-8.54,15-50.51-15.61-47.98-.3.02-.32.47-.03.57,75.65,25.54-91.09,115.44-68.79-13.7,1.76-20.26,47.55-34.29,54.47-40.9,1.81-1.72,9.74-7.82,12.76-8.96,55-20.7,87,69.95,138.41,86.57,19.48,7.38,49.66,14.07,51.1-14.61,0-85.82.11-294.73.37-364.78,0-.1.07-.2.17-.23,73.64-29.83,23.07,478.7,36.59,503.05ZM652.91,636.39V148.14c0-.17.16-.29.33-.25,36.51,9.43,72.04,14.43,106.64,15.09.3,0,.34.41.06.49-34.06,10.29-63.09,24.47-62.88,63.11l.59,360.61c-1.01,29.43-11.59,40.48-44.39,49.46-.17.05-.35-.08-.35-.25Z" style="fill: #fff; stroke: #fff; stroke-linecap: square; stroke-linejoin: round; stroke-width: 10.2px;"/>
  </g>
</svg>